Coordinates
version=1
nRows=13
nColumns=34
inDegrees=yes

Units are S.I. units (second, meters, Newtons, ...)
Angles are in degrees.

endheader
time	pelvis_tilt	pelvis_list	pelvis_rotation	pelvis_tx	pelvis_ty	pelvis_tz	hip_flexion_r	hip_adduction_r	hip_rotation_r	knee_angle_r	ankle_angle_r	subtalar_angle_r	mtp_angle_r	hip_flexion_l	hip_adduction_l	hip_rotation_l	knee_angle_l	socket_flexion	socket_adduction	socket_rotation	socket_tx	socket_ty	socket_tz	pros_ankle_rx	pros_ankle_ry	pros_ankle_rz	pros_ankle_tx	pros_ankle_ty	pros_ankle_tz	foot_flex	lumbar_extension	lumbar_bending	lumbar_rotation
      0.30000000	      1.87411264	     -4.64419271	     -3.16670964	     -0.37900451	      1.04885124	      0.35534941	      9.11115349	      0.85701955	     -6.36524001	    -63.87918831	     -2.00089123	      9.97429480	     17.08869489	      4.98974347	     -3.88388455	     -9.40621099	    -11.29044875	      6.44345802	     -0.09496799	      8.32410523	      0.01610693	     -0.02208953	      0.00271313	      0.00000000	      0.00000000	      0.00000000	      0.00000000	      0.00000000	      0.00000000	      5.72366057	     -9.59940000	     -4.82591902	    -18.47287947
      0.30416667	      1.96095757	     -4.73272020	     -3.07616098	     -0.37361178	      1.04966244	      0.35503355	      9.59170197	      0.95850878	     -6.47814447	    -63.84386224	     -1.09825706	      9.96013275	     17.13159557	      4.47780593	     -3.93084020	     -9.49576422	    -11.20498416	      6.34898693	     -0.12705345	      8.45046963	      0.01584059	     -0.02191885	      0.00285075	      0.00000000	      0.00000000	      0.00000000	      0.00000000	      0.00000000	      0.00000000	      5.87811764	     -9.63803066	     -4.67927429	    -18.63467643
      0.30833333	      2.05223597	     -4.82025975	     -3.00973250	     -0.36824705	      1.05047287	      0.35480862	     10.05471313	      1.05882789	     -6.59440547	    -63.74387516	     -0.16472641	      9.97672402	     17.17996301	      3.94992067	     -3.97739539	     -9.57481477	    -11.11805905	      6.25260373	     -0.14404787	      8.58309603	      0.01547209	     -0.02174722	      0.00303482	      0.00000000	      0.00000000	      0.00000000	      0.00000000	      0.00000000	      0.00000000	      6.02731249	     -9.67617055	     -4.52515770	    -18.80115057
      0.31250000	      2.14709548	     -4.91895392	     -2.93445539	     -0.36292302	      1.05128165	      0.35455005	     10.50539333	      1.17437933	     -6.71136980	    -63.59316213	      0.74054634	     10.03579238	     17.22296917	      3.42648847	     -4.03611458	     -9.65926225	    -11.03314478	      6.15883031	     -0.16598011	      8.68553771	      0.01511781	     -0.02158985	      0.00321107	      0.00000000	      0.00000000	      0.00000000	      0.00000000	      0.00000000	      0.00000000	      6.15797778	     -9.71980154	     -4.38953717	    -18.96879245
      0.31666667	      2.20174036	     -5.00791236	     -2.84574202	     -0.35767238	      1.05202095	      0.35423725	     10.99307771	      1.27655105	     -6.84133517	    -63.36891842	      1.41274541	     10.07336440	     17.25458803	      2.95932460	     -4.06135019	     -9.70950583	    -10.94540845	      6.06909311	     -0.20710569	      8.80367702	      0.01478686	     -0.02137785	      0.00365118	      0.00000000	      0.00000000	      0.00000000	      0.00000000	      0.00000000	      0.00000000	      6.30557232	     -9.79952930	     -4.26472684	    -19.08642918
      0.32083333	      2.32616319	     -5.13103670	     -2.78704846	     -0.35237933	      1.05284299	      0.35402104	     11.38090789	      1.41206199	     -6.97394859	    -63.10468922	      2.40882566	     10.19796673	     17.29112138	      2.39773453	     -4.17602200	     -9.80767247	    -10.86514665	      5.97610113	     -0.21211486	      8.86462428	      0.01436307	     -0.02125804	      0.00347953	      0.00000000	      0.00000000	      0.00000000	      0.00000000	      0.00000000	      0.00000000	      6.40010734	     -9.83384071	     -4.10122086	    -19.28766425
      0.32500000	      2.33516818	     -5.20034914	     -2.71373286	     -0.34731456	      1.05355104	      0.35372354	     11.90911249	      1.48622529	     -7.12244081	    -62.74447815	      2.67474801	     10.20316427	     17.29882270	      2.07679580	     -4.17165625	     -9.85466293	    -10.82913880	      5.94125060	     -0.27963826	      8.91737229	      0.01461307	     -0.02079223	      0.00403568	      0.00000000	      0.00000000	      0.00000000	      0.00000000	      0.00000000	      0.00000000	      6.51012708	     -9.96293400	     -4.07789980	    -19.32293968
      0.32916667	      2.46370177	     -5.32944997	     -2.64679790	     -0.34199336	      1.05429687	      0.35346064	     12.26517429	      1.62309575	     -7.26355581	    -62.40079610	      3.83594787	     10.30826841	     17.34376277	      1.45340382	     -4.27475012	     -9.93014475	    -10.71521012	      5.82137753	     -0.28532340	      9.02565215	      0.01374251	     -0.02080273	      0.00407220	      0.00000000	      0.00000000	      0.00000000	      0.00000000	      0.00000000	      0.00000000	      6.65612259	     -9.90599998	     -3.77992902	    -19.56641348
      0.33333333	      2.56497239	     -5.45924701	     -2.58323061	     -0.33686158	      1.05503191	      0.35324627	     12.64891484	      1.77210375	     -7.40872606	    -61.96870668	      4.57438238	     10.50290724	     17.32314669	      0.92326092	     -4.40123162	     -9.98023588	    -10.63091947	      5.72293488	     -0.27255869	      9.07976242	      0.01318829	     -0.02065625	      0.00390578	      0.00000000	      0.00000000	      0.00000000	      0.00000000	      0.00000000	      0.00000000	      6.77343895	    -10.02288267	     -3.61525105	    -19.74675148
      0.33750000	      2.63598954	     -5.56520874	     -2.50632457	     -0.33173851	      1.05575440	      0.35298042	     13.04908110	      1.88910184	     -7.57075585	    -61.47416490	      5.15280227	     10.60390394	     17.29069519	      0.44603195	     -4.45875231	    -10.01349336	    -10.55461386	      5.64224779	     -0.30741566	      9.13410412	      0.01273415	     -0.02040301	      0.00420774	      0.00000000	      0.00000000	      0.00000000	      0.00000000	      0.00000000	      0.00000000	      6.90410089	    -10.10214534	     -3.45125894	    -19.87315707
      0.34166667	      2.64148251	     -5.62633024	     -2.44892884	     -0.32681243	      1.05635478	      0.35273709	     13.54421953	      1.95890589	     -7.71480452	    -60.94838218	      5.41963189	     10.61791928	     17.28187645	      0.14010249	     -4.45932313	    -10.05646901	    -10.52882436	      5.61644129	     -0.36338065	      9.16988890	      0.01292212	     -0.01997018	      0.00465566	      0.00000000	      0.00000000	      0.00000000	      0.00000000	      0.00000000	      0.00000000	      6.99804013	    -10.22774813	     -3.42569782	    -19.91359305
      0.34583333	      2.75478836	     -5.78076458	     -2.37666404	     -0.32156348	      1.05704517	      0.35244109	     13.84160241	      2.12685172	     -7.88702638	    -60.35110347	      6.28242138	     10.72919581	     17.24679462	     -0.44212032	     -4.57615581	    -10.11167941	    -10.42147747	      5.50687731	     -0.39513966	      9.25175309	      0.01215850	     -0.01993278	      0.00482976	      0.00000000	      0.00000000	      0.00000000	      0.00000000	      0.00000000	      0.00000000	      7.13520449	    -10.19093774	     -3.12220121	    -20.13280347
      0.35000000	      2.74336726	     -5.81309824	     -2.32782556	     -0.31672608	      1.05758749	      0.35225682	     14.33454451	      2.17442601	     -8.02168816	    -59.74233584	      6.48161317	     10.74424349	     17.23229791	     -0.70163166	     -4.57316742	    -10.17001515	    -10.41202347	      5.49237694	     -0.42405796	      9.26701992	      0.01246256	     -0.01940719	      0.00503253	      0.00000000	      0.00000000	      0.00000000	      0.00000000	      0.00000000	      0.00000000	      7.21906233	    -10.34505943	     -3.11783073	    -20.15980640
